# xmcd CD database file
#
# Track frame offsets:
#	150
#	15571
#	32872
#	50847
#	71278
#
# Disc length: 1157 seconds
#
# Revision: 0
# Processed by: cddbd v1.4PL0 Copyright (c) Steve Scherf et al.
# Submitted via: CDex 1.50
#
DISCID=3c048305
DTITLE=Beny Moré - Beny Moré
DYEAR=1900
DGENRE=Salsa
TTITLE0=Elige tu que canto yo
TTITLE1=Santa isabel de las lajas
TTITLE2=Maracaibo oriental
TTITLE3=Te quedaras
TTITLE4=No hay tierra como la mia
EXTD=
EXTT0=
EXTT1=
EXTT2=
EXTT3=
EXTT4=
PLAYORDER=
